# xmcd
#
# Track frame offsets:
#	150
#	12331
#	23867
#	34008
#	45356
#	57412
#	68571
#	80628
#	93546
#	101891
#	111555
#	122827
#	132582
#	143625
#	155235
#	170397
#	181866
#	190797
#	201515
#	212151
#	224170
#	233701
#
# Disc length: 3274 seconds
#
# Revision: 0
# Processed by: cddbd v1.5.2PL0 Copyright (c) Steve Scherf et al.
# Submitted via: audiograbber 1.83.01
#
DISCID=4d0cc816
DTITLE=Various Artist - Save The Last Dance For Me CD2
DYEAR=1900
DGENRE=Oldies
TTITLE0=Sam Cooke - Another Saturday Night
TTITLE1=Helen Shapiro - Don't Treat Me Like A Child
TTITLE2=Jimmy Clanton - Go, Jimmy, Go
TTITLE3=Lesley Gore - You Don't Own Me (Single Version)
TTITLE4=Martha And The Vandellas - Dancing In The Street
TTITLE5=Chris Montez - Let's Dance
TTITLE6=Duane Eddy - Dance With The Guitar Man
TTITLE7=Buddy Holly - True Love Ways
TTITLE8=Paul Anka - Dance On Little Girl
TTITLE9=The Angels - My Boyfriend's Back (Single Version)
TTITLE10=Ben E King - Ecstasy
TTITLE11=The Gentrys - Keep On Dancing (Single Version)
TTITLE12=Billy Fury - Halfway To Paradise
TTITLE13=Brenda Lee - Lets Jump The Broomstick (Single Version)
TTITLE14=Peggy Lee - Fever
TTITLE15=The Capitols - Cool Jerk
TTITLE16=Terry Dene - The Stairway Of Love
TTITLE17=Leroy Van Dyke - Walk On By
TTITLE18=Connie Francis - Lipstick On Your Collar
TTITLE19=The Platters - Smoke Gets In Your Eyes (Single Version) [Clean]
TTITLE20=The Everly Brothers - It's Been Nice (Goodnight)
TTITLE21=Tommy Edwards - It's All In The Game (Single Version)
EXTD=(p) Universal 2016
EXTT0=
EXTT1=
EXTT2=
EXTT3=
EXTT4=
EXTT5=
EXTT6=
EXTT7=
EXTT8=
EXTT9=
EXTT10=
EXTT11=
EXTT12=
EXTT13=
EXTT14=
EXTT15=
EXTT16=
EXTT17=
EXTT18=
EXTT19=
EXTT20=
EXTT21=
PLAYORDER=
